<?xml version="1.0" encoding="UTF-8" standalone="no"?>
<!-- Generator: Adobe Illustrator 16.0.3, SVG Export Plug-In . SVG Version: 6.00 Build 0)  -->

<svg
   xmlns:dc="http://purl.org/dc/elements/1.1/"
   xmlns:cc="http://creativecommons.org/ns#"
   xmlns:rdf="http://www.w3.org/1999/02/22-rdf-syntax-ns#"
   xmlns:svg="http://www.w3.org/2000/svg"
   xmlns="http://www.w3.org/2000/svg"
   xmlns:sodipodi="http://sodipodi.sourceforge.net/DTD/sodipodi-0.dtd"
   xmlns:inkscape="http://www.inkscape.org/namespaces/inkscape"
   version="1.2"
   id="Ebene_1"
   x="0px"
   y="0px"
   width="141.43px"
   height="166.43px"
   viewBox="0 0 141.43 166.43"
   xml:space="preserve"
   sodipodi:docname="Logo.svg"
   inkscape:version="0.92.2 (5c3e80d, 2017-08-06)"><metadata
     id="metadata77"><rdf:RDF><cc:Work
         rdf:about=""><dc:format>image/svg+xml</dc:format><dc:type
           rdf:resource="http://purl.org/dc/dcmitype/StillImage" /><dc:title></dc:title></cc:Work></rdf:RDF></metadata><defs
     id="defs75" /><sodipodi:namedview
     pagecolor="#ffffff"
     bordercolor="#666666"
     borderopacity="1"
     objecttolerance="10"
     gridtolerance="10"
     guidetolerance="10"
     inkscape:pageopacity="0"
     inkscape:pageshadow="2"
     inkscape:window-width="1920"
     inkscape:window-height="1016"
     id="namedview73"
     showgrid="false"
     inkscape:pagecheckerboard="true"
     inkscape:zoom="4.0107482"
     inkscape:cx="68.054892"
     inkscape:cy="74.007544"
     inkscape:window-x="0"
     inkscape:window-y="30"
     inkscape:window-maximized="1"
     inkscape:current-layer="Ebene_1" /><path
     style="fill:#e30613;stroke-width:0.23709999;fill-opacity:1"
     d="m 29.969075,160.36577 c -6.732353,-6.98719 -12.399017,-13.08571 -15.157912,-16.31309 -4.219385,-4.93586 -9.9120244,-13.24414 -9.732393,-14.2042 0.066617,-0.35604 -0.031695,-0.56736 -0.2969203,-0.63822 -0.4866504,-0.13002 -1.9064563,-3.51168 -2.4713139,-5.88612 -0.6596819,-2.77303 -0.4141735,-4.64847 1.0086514,-7.70508 1.9484029,-4.1857 3.3385169,-9.2794 3.3385169,-12.23312 0,-3.33442 -1.6092802,-14.530891 -2.6852773,-18.682654 C 3.6478964,83.451077 3.0733059,81.24024 2.695559,79.790314 1.0748149,73.569328 0.91073575,71.883901 0.91073575,61.456543 c 0,-9.418214 0.003348,-9.483375 0.65687265,-12.786102 0.7948043,-4.016713 1.5008454,-6.149878 3.5384077,-10.690604 2.1760023,-4.849242 3.0830601,-6.380905 6.7203019,-11.347953 3.385545,-4.623324 6.830776,-8.675171 8.925399,-10.496929 3.81055,-3.31415 10.596776,-8.1099324 12.344572,-8.7238266 0.479382,-0.1683776 0.966066,-0.5224303 1.081521,-0.7867841 0.115453,-0.2643536 0.751589,-0.7880092 1.413632,-1.1636792 1.609426,-0.9132526 1.657853,-0.9287481 1.487834,-0.4760806 -0.258527,0.6883241 0.280851,0.4202783 0.65944,-0.327711 0.403672,-0.797544 2.812848,-2.1421713 6.596577,-3.68172937 1.880213,-0.76503763 2.386026,-0.87082984 4.16362,-0.87082984 h 2.023406 V 11.353303 c 0,9.583212 -1.552087,107.628307 -1.70581,107.755737 -0.02941,0.0244 -2.449726,-1.96416 -5.378489,-4.41898 -5.315704,-4.45548 -5.325035,-4.46497 -5.332176,-5.42192 -0.0039,-0.52724 0.407617,-6.51268 0.914559,-13.300969 l 0.921713,-12.342342 -0.867363,-0.790351 c -1.705013,-1.553623 -2.794697,-2.145473 -6.442389,-3.4991 -4.542144,-1.685552 -6.270769,-2.455635 -6.270769,-2.793564 0,-0.142675 -0.194543,-0.195744 -0.433511,-0.118254 -0.945564,0.30662 -6.612771,-2.026018 -13.582146,-5.590443 -2.351732,-1.202773 -4.3192395,-2.18686 -4.3722394,-2.18686 -0.053,0 0.096361,0.765496 0.3319139,1.701103 0.74083,2.942554 1.0102171,5.783064 0.8707525,9.181512 l -0.1310234,3.192754 4.1085164,2.827966 c 2.259683,1.555382 4.481701,3.187557 4.937816,3.627057 0.456115,0.439503 0.961914,0.799094 1.123997,0.799094 0.162084,0 1.070939,0.373175 2.019678,0.829278 2.249896,1.081628 4.899138,1.839894 9.231224,2.642156 1.935203,0.358383 3.525634,0.667572 3.534292,0.687085 0.0087,0.01951 0.61728,15.673108 1.3525,34.785768 0.735218,19.11266 1.396267,35.42432 1.468996,36.24814 0.121085,1.37159 0.09366,1.49786 -0.325295,1.49786 -0.288108,0 -2.705368,-2.33293 -6.527991,-6.30026 z m 6.020801,4.32309 c 0.02407,-0.66097 -2.680909,-69.566276 -2.733915,-69.642566 -0.03136,-0.04514 -1.46348,-0.343333 -3.182483,-0.662648 -4.032087,-0.748983 -6.91893,-1.581976 -9.06797,-2.616543 -1.290892,-0.621445 -1.825732,-0.770466 -2.142865,-0.597062 -0.232437,0.127095 -1.264659,1.150596 -2.293825,2.274449 -1.80237,1.968191 -2.40487,2.400751 -2.40487,1.726555 0,-0.376214 2.126779,-3.595291 2.997279,-4.536662 0.731636,-0.791199 1.280674,-0.277557 -4.696034,-4.393287 C 8.2746366,83.35536 8.076616,83.184034 8.2341648,82.580451 8.3250711,82.232179 8.4030438,80.27562 8.4074373,78.232543 8.4160062,74.247608 8.0892586,72.053015 6.9844366,68.674999 6.6662774,67.702221 6.4398032,66.87174 6.4811603,66.829486 c 0.041357,-0.04225 2.2831239,1.066007 4.9817037,2.462803 7.170262,3.711357 12.598222,6.064368 13.98938,6.064368 0.225535,0 1.479195,-0.75492 2.785913,-1.6776 1.306717,-0.92268 2.474621,-1.6776 2.595345,-1.6776 0.58954,0 0.05587,0.831402 -1.560912,2.43172 -1.310164,1.296823 -1.674786,1.784144 -1.380514,1.84506 0.261269,0.05409 1.685584,-1.221552 4.108759,-3.679868 3.35029,-3.398875 4.216215,-4.048483 4.211048,-3.159082 -9.39e-4,0.156985 -1.431455,1.945995 -3.178986,3.975575 -1.747529,2.029582 -3.092629,3.76741 -2.989111,3.861842 0.10352,0.09443 1.61323,0.687231 3.354914,1.317328 3.187869,1.15329 5.185857,2.325621 6.641295,3.896811 l 0.659756,0.712227 -0.96006,13.13656 c -0.779115,10.66067 -0.903463,13.19191 -0.659757,13.43023 0.952956,0.9319 8.695417,7.28714 8.877772,7.28714 0.120402,0 0.219698,-0.18873 0.22066,-0.4194 9.38e-4,-0.23067 0.422285,-24.9543 0.936275,-54.9414 0.51399,-29.9871 0.93543,-55.9509557 0.936533,-57.6974571 l 0.002,-3.17545719 h -1.276155 c -1.509593,0 -3.609455,0.72201999 -7.33689,2.52272909 -2.999997,1.4492875 -3.173164,1.6479297 -5.217466,5.9850995 -1.442348,3.0600707 -2.490271,6.0776777 -3.162575,9.1069717 -0.404814,1.824029 -0.63002,2.41626 -0.942674,2.478985 -0.366382,0.07351 -0.392586,-0.05603 -0.242377,-1.198286 0.254842,-1.937942 1.17823,-5.443171 2.452142,-9.308451 0.629774,-1.9108463 1.107749,-3.5123698 1.062167,-3.5589411 -0.248999,-0.2543975 -0.638845,0.4681153 -1.532074,2.8394312 -0.546114,1.4498029 -1.095353,2.6360049 -1.220534,2.6360049 -0.134753,0 -0.19136,-0.733243 -0.138762,-1.797429 0.04886,-0.9885857 0.02644,-1.7974286 -0.04984,-1.7974286 -0.07627,0 -1.324824,0.8097078 -2.774561,1.7993506 -7.983025,5.449503 -11.490959,8.888649 -17.701265,17.354154 -3.0830953,4.202683 -4.0420821,5.848097 -6.1625935,10.573675 -2.0392116,4.544403 -2.7531518,6.70165 -3.4556092,10.441495 -0.990341,5.272525 -1.1698078,7.721562 -1.0204281,13.924965 0.1836628,7.627107 0.8487003,12.357477 2.6209016,18.642303 0.9892554,3.508236 1.7784657,7.483091 2.617126,13.181143 0.7320858,4.973962 0.8933955,10.807293 0.3611861,13.061313 -0.6221013,2.63474 -1.7597545,5.92633 -2.8990971,8.388 -1.2981754,2.80485 -1.5638727,4.23892 -1.1575945,6.24797 0.3657369,1.80857 1.6813017,5.25557 2.0058165,5.25557 0.1475822,0 0.6629513,-0.70099 1.1452648,-1.55777 0.8438429,-1.49899 1.4440844,-1.92873 1.7089502,-1.22354 0.069044,0.18383 -0.303717,1.36463 -0.8283575,2.62401 -0.5246405,1.25938 -0.9538916,2.41542 -0.9538916,2.56899 0,0.87174 5.9436603,9.24732 9.5132353,13.40569 3.954669,4.60698 19.934854,21.56914 20.320464,21.56914 0.105203,0 0.196185,-0.13481 0.202183,-0.29957 z"
     id="path886"
     inkscape:connector-curvature="0" /><g
     id="g58"><polygon
       fill="#E30613"
       points="28.366,58.75 28.366,64.042 45.734,64.041 43.741,107.739 48.861,112.412 53.866,107.875    51.583,64.041 91.241,64.042 91.241,58.75  "
       id="polygon4" /><polyline
       fill="#E30613"
       points="54.983,71.375 67.623,71.375 67.623,100.375 73.457,100.375 73.457,71.375 113.412,71.375    113.412,66.155 54.983,66.198  "
       id="polyline6" /><polyline
       fill="#E30613"
       points="57.983,73.542 57.983,100.375 63.895,100.375 63.877,73.542  "
       id="polyline8" /><polyline
       fill="#E30613"
       points="57.983,127.74 57.983,145.15 63.887,151.873 63.887,118.291  "
       id="polyline10" /><polyline
       fill="#E30613"
       points="93.243,73.542 115.759,100.375 125.163,100.375 111.351,83.945 131.11,100.375 141.43,100.375    118.909,73.542 110.315,73.542 121.018,86.688 102.648,73.542  "
       id="polyline12" /><path
       fill="#E30613"
       d="M85.761,73.542l22.514,26.833h-8.5l-8.055-9.807l-8.826,0.305l-0.012,9.502h-5.807l-0.119-26.833    M82.894,85.707h5.182l-5.182-5.666V85.707z"
       id="path14" /><g
       id="g24"><polyline
         fill="#E30613"
         points="86.575,103.875 86.597,137.242 92.603,137.242 92.592,103.875   "
         id="polyline16" /><polyline
         fill="#E30613"
         points="92.603,109.709 109.412,109.709 109.412,103.875 92.528,103.875   "
         id="polyline18" /><polyline
         fill="#E30613"
         points="92.603,137.242 109.412,137.242 109.407,130.889 92.507,131.025   "
         id="polyline20" /><polyline
         fill="#E30613"
         points="92.406,123.469 107.179,123.469 107.179,117.465 92.382,117.465   "
         id="polyline22" /></g><g
       id="g30"><polyline
         fill="#E30613"
         points="76.956,103.875 76.956,148.708 82.894,148.708 82.759,103.875   "
         id="polyline26" /><polyline
         fill="#E30613"
         points="82.005,148.708 98.792,148.689 98.833,142.855 81.931,142.871   "
         id="polyline28" /></g><g
       id="g36"><polyline
         fill="#E30613"
         points="67.741,103.875 67.741,158.541 73.574,158.541 73.574,103.875   "
         id="polyline32" /><polyline
         fill="#E30613"
         points="72.797,158.541 89.583,158.522 89.624,152.688 72.723,152.704   "
         id="polyline34" /></g><g
       id="g44"><polyline
         fill="#E30613"
         points="38.443,117.25 38.727,166.375 44.561,166.375 44.445,122.5   "
         id="polyline38" /><polyline
         fill="#E30613"
         points="44.625,143.043 64.189,110.376 57.342,110.391 39.66,139.965   "
         id="polyline40" /><polyline
         fill="#E30613"
         points="42.564,142.823 63.857,165.875 71.695,165.875 46.711,138.708   "
         id="polyline42" /></g><g
       id="g56"><polyline
         fill="#E30613"
         points="114.862,103.875 114.862,137.242 120.728,137.242 120.592,103.875   "
         id="polyline46" /><g
         id="g50"><polyline
           fill="#E30613"
           points="120.228,109.709 137.014,109.689 137.116,103.875 120.153,103.871    "
           id="polyline48" /></g><polyline
         fill="#E30613"
         points="122.517,122.041 137.014,109.689 133.263,105.222 118.663,117.654   "
         id="polyline52" /><polyline
         fill="#E30613"
         points="117.698,121.448 132.095,137.242 140.21,137.242 121.889,117.382   "
         id="polyline54" /></g></g><g
     id="g60" /><g
     id="g62" /><g
     id="g64" /><g
     id="g66" /><g
     id="g68" /><g
     id="g70" /><path
     style="opacity:1;fill:#ffffff;fill-opacity:1;stroke:none;stroke-width:1.32868576;stroke-linecap:round;stroke-linejoin:round;stroke-miterlimit:10;stroke-dasharray:none;stroke-dashoffset:0;stroke-opacity:1"
     d="m 32.26139,161.36519 c -6.770718,-7.06117 -13.952548,-14.79942 -16.648942,-17.93883 -3.783337,-4.40493 -9.5011202,-12.49511 -9.5011202,-13.44328 0,-0.20199 0.1591271,-0.73849 0.3536159,-1.19222 0.7257928,-1.6932 1.3954758,-3.79564 1.2935891,-4.06115 -0.2315788,-0.60348 -0.852691,-0.16952 -1.7777503,1.2421 -0.5081498,0.77543 -0.9950837,1.43359 -1.0820753,1.46259 -0.1915503,0.0639 -1.0827114,-2.04934 -1.591298,-3.7734 -0.832296,-2.82142 -0.6707054,-4.18408 0.9319082,-7.8586 1.0034734,-2.30079 1.9517266,-4.99767 2.6231338,-7.46032 0.339749,-1.24617 0.3836386,-1.84161 0.3768617,-5.11279 C 7.2261959,96.897999 6.1924054,89.932798 3.9945703,81.367723 1.9687808,73.47312 1.4829918,69.508192 1.4564632,60.652126 1.4378116,54.425623 1.5319499,53.40524 2.6079292,48.171172 3.4134022,44.252971 4.836281,40.444295 7.4144281,35.305421 10.397705,29.359026 17.476708,20.339285 22.615097,15.937429 c 2.333918,-1.999376 9.181562,-6.9420702 9.617593,-6.9420702 0.08128,0 0.147779,0.7093447 0.147779,1.5763222 0,2.432591 0.27484,2.334873 1.403066,-0.498856 0.780211,-1.9596346 1.397295,-3.2309051 1.409988,-2.9047623 0.0043,0.1101033 -0.474112,1.7364981 -1.063107,3.6142103 -1.551741,4.946944 -2.610075,9.367383 -2.383862,9.956883 0.183623,0.478518 0.608737,0.233811 0.876409,-0.504484 0.149411,-0.412108 0.557144,-1.857621 0.906072,-3.212251 0.766535,-2.9759 1.665807,-5.355573 3.273295,-8.6618715 C 38.333153,5.211937 38.779702,4.7493742 41.611208,3.3792212 45.3847,1.5532458 47.389649,0.88542269 49.09813,0.88542269 h 0.952616 L 49.932939,7.5408594 C 49.654736,23.257637 49.130843,55.584976 49.13008,57.081991 l -8.3e-4,1.630802 H 38.727375 28.325501 v 2.732696 2.732696 h 8.638845 8.638844 v 0.558658 c 0,0.307261 -0.438465,10.120183 -0.97437,21.806492 -0.788261,17.189445 -0.931376,21.285615 -0.749287,21.445625 0.123796,0.10879 1.150495,1.04941 2.281552,2.09026 l 2.056472,1.89247 -0.09679,2.41646 c -0.05324,1.32906 -0.122122,2.44587 -0.153082,2.4818 -0.08985,0.10427 -6.166952,-4.79209 -8.058821,-6.49304 l -0.878632,-0.78997 0.12639,-3.00252 c 0.06951,-1.65139 0.46542,-7.564363 0.87979,-13.139944 0.647949,-8.718492 0.719646,-10.192783 0.512231,-10.532959 -0.476829,-0.782038 -2.645919,-2.368386 -4.377659,-3.201567 -0.969666,-0.466531 -2.695231,-1.194659 -3.834589,-1.618063 -1.139358,-0.423404 -2.07156,-0.83901 -2.07156,-0.923566 0,-0.252399 0.666982,-1.116747 3.152544,-4.085407 2.73588,-3.267631 2.916197,-3.519964 2.776158,-3.884899 -0.186917,-0.487095 -0.924833,0.09657 -4.578212,3.621226 -1.923815,1.856027 -3.545767,3.326671 -3.60434,3.268098 -0.05857,-0.05857 0.370376,-0.60018 0.953221,-1.20357 1.533035,-1.587074 2.182144,-2.393348 2.182144,-2.710497 0,-0.448166 -0.446995,-0.228984 -3.054618,1.497817 -1.340657,0.8878 -2.583882,1.614182 -2.762724,1.614182 -1.137549,0 -6.767464,-2.468141 -13.789836,-6.04543 -2.687235,-1.368911 -4.941936,-2.432877 -5.0104469,-2.364366 -0.068511,0.06851 0.1632175,1.096208 0.5149525,2.283773 1.1081625,3.741494 1.4865062,7.355393 1.2220616,11.673008 -0.1237842,2.02104 -0.1127522,2.128595 0.2642951,2.576691 0.2164092,0.257187 2.1209877,1.667478 4.2323967,3.133979 2.111408,1.466502 4.065037,2.848581 4.341396,3.071287 l 0.502472,0.404922 -0.658385,0.78708 c -0.773048,0.924157 -2.191958,3.002429 -2.627553,3.848563 -0.380865,0.739824 -0.154185,1.065076 0.461252,0.661827 0.231956,-0.151983 1.193658,-1.106435 2.137114,-2.121004 0.943457,-1.014568 1.865991,-1.892473 2.050076,-1.950899 0.202812,-0.06437 1.168007,0.24428 2.449448,0.783284 2.285831,0.961473 5.374352,1.811051 9.304126,2.559337 l 2.485027,0.473186 0.114736,3.114724 c 0.0631,1.713098 0.352036,9.025277 0.642069,16.249297 0.290034,7.22401 0.802935,20.35417 1.139783,29.17814 0.336846,8.82396 0.6642,17.21378 0.727454,18.64404 0.07353,1.66264 0.05256,2.60046 -0.05815,2.60046 -0.09523,0 -1.675592,-1.56689 -3.511906,-3.48198 z"
     id="path888"
     inkscape:connector-curvature="0" /></svg>